<?xml version="1.0" standalone="no"?>
<!DOCTYPE svg PUBLIC "-//W3C//DTD SVG 20010904//EN"
 "http://www.w3.org/TR/2001/REC-SVG-20010904/DTD/svg10.dtd">
<svg version="1.0" xmlns="http://www.w3.org/2000/svg"
 width="355.000000pt" height="92.000000pt" viewBox="0 0 355.000000 92.000000"
 preserveAspectRatio="xMidYMid meet">

<g transform="translate(0.000000,92.000000) scale(0.100000,-0.100000)"
fill="#000000" stroke="none">
<path d="M1334 759 c-5 -8 -55 -114 -111 -237 -56 -123 -108 -231 -115 -239
-7 -9 -26 -22 -43 -29 -27 -12 -19 -13 80 -13 83 1 102 3 79 10 -66 19 -71 55
-23 164 l33 76 75 -3 76 -3 52 -102 c29 -57 50 -109 47 -117 -3 -8 -15 -17
-27 -19 -12 -2 28 -5 88 -5 100 -1 108 0 84 13 -20 11 -60 80 -156 266 -91
175 -133 247 -139 238z m-21 -247 c-30 -2 -57 -1 -60 2 -3 2 8 32 23 66 l28
62 32 -63 32 -64 -55 -3z"/>
<path d="M2524 761 c-99 -24 -191 -104 -214 -186 -7 -24 -10 -68 -8 -97 11
-135 110 -229 256 -244 65 -7 186 11 200 30 9 11 26 126 19 126 -3 0 -20 -24
-40 -53 -69 -105 -178 -117 -258 -30 -82 88 -100 269 -38 370 25 41 87 72 140
73 54 0 118 -39 157 -95 l35 -50 -7 65 c-4 36 -11 69 -15 73 -23 23 -159 34
-227 18z"/>
<path d="M3042 752 c-72 -26 -121 -68 -155 -133 -26 -49 -29 -61 -25 -134 5
-92 21 -128 80 -186 130 -126 372 -68 450 109 15 34 19 60 16 111 -6 105 -57
185 -144 226 -57 27 -157 30 -222 7z m148 -24 c81 -41 126 -145 118 -273 -16
-249 -262 -278 -334 -39 -17 57 -18 168 -3 215 36 106 124 145 219 97z"/>
<path d="M145 753 c44 -11 45 -15 45 -253 0 -238 -1 -242 -45 -253 -11 -2 45
-5 125 -6 133 -1 150 1 190 21 120 61 120 197 -1 253 l-51 23 31 18 c54 32 76
107 45 153 -30 42 -72 51 -221 50 -76 -1 -129 -4 -118 -6z m240 -33 c9 -10 19
-36 22 -58 9 -70 -36 -132 -97 -132 -19 0 -20 7 -20 100 0 80 3 101 16 108 22
12 59 4 79 -18z m5 -225 c40 -20 60 -63 60 -125 0 -44 -4 -56 -30 -81 -26 -26
-36 -30 -77 -27 l-48 3 -3 123 -3 122 36 0 c20 0 49 -7 65 -15z"/>
<path d="M635 753 c42 -10 45 -27 45 -253 0 -226 -3 -243 -45 -253 -11 -3 71
-5 181 -6 l201 -1 7 46 c3 26 6 61 6 78 l-1 31 -19 -37 c-32 -59 -105 -98
-185 -98 -54 0 -55 5 -55 246 0 232 1 236 45 247 11 2 -29 5 -90 5 -60 0 -101
-2 -90 -5z"/>
<path d="M1680 749 c14 -6 35 -20 47 -31 22 -21 23 -27 23 -209 0 -103 -4
-199 -10 -214 -5 -14 -24 -32 -42 -40 -31 -14 -28 -14 62 -14 72 0 89 3 69 10
-45 17 -50 40 -47 232 l3 177 189 -215 c103 -118 192 -215 197 -215 5 0 9 107
9 238 1 253 2 262 51 281 18 7 2 10 -66 10 -62 0 -83 -3 -68 -9 47 -19 54 -46
51 -207 l-3 -150 -159 183 -159 184 -86 -1 c-68 0 -81 -2 -61 -10z"/>
<path d="M100 115 c0 -13 192 -15 1670 -15 1478 0 1670 2 1670 15 0 13 -192
15 -1670 15 -1478 0 -1670 -2 -1670 -15z"/>
</g>
</svg>
